<svg width="128" height="34" viewBox="0 0 128 34" fill="none" xmlns="http://www.w3.org/2000/svg">
<circle cx="33.38" cy="17.62" r="14" fill="#D9D9D9"/>
<circle cx="33.38" cy="17.62" r="14" fill="#FFDFA0"/>
<circle cx="33.38" cy="17.62" r="14" stroke="#00164D" stroke-width="3"/>
<circle cx="36.9967" cy="14.0033" r="9.81667" fill="#00164D"/>
<path d="M42.2667 15.14L40.6133 15.5533L42.2667 15.9666L42.68 17.62L43.0933 15.9666L44.7467 15.5533L43.0933 15.14L42.68 13.4866L42.2667 15.14Z" fill="#FFDFA0"/>
<path d="M37.72 12.66L36.48 12.97L37.72 13.28L38.03 14.52L38.34 13.28L39.58 12.97L38.34 12.66L38.03 11.42L37.72 12.66Z" fill="#FFDFA0"/>
<path d="M41.2334 9.97334L39.58 10.3867L41.2334 10.8L41.6467 12.4533L42.06 10.8L43.7134 10.3867L42.06 9.97334L41.6467 8.32001L41.2334 9.97334Z" fill="#FFDFA0"/>
<path d="M6.88 28.44C5.57333 28.44 4.4 28.28 3.36 27.96C2.32 27.64 1.49333 27.24 0.88 26.76C0.293333 26.2533 0 25.7466 0 25.24C0 25 0.0533333 24.7333 0.16 24.44C0.293333 24.1467 0.466667 23.8933 0.68 23.68C0.92 23.4667 1.17333 23.36 1.44 23.36C1.78667 23.36 2.14667 23.52 2.52 23.84C2.92 24.1333 3.44 24.44 4.08 24.76C4.72 25.0533 5.61333 25.2 6.76 25.2C8.09333 25.2 8.98667 24.9733 9.44 24.52C9.92 24.0666 10.16 23.5733 10.16 23.04C10.16 22.3467 9.92 21.8133 9.44 21.44C8.98667 21.04 8.38667 20.72 7.64 20.48C6.92 20.24 6.14667 20.0133 5.32 19.8C4.49333 19.56 3.70667 19.2533 2.96 18.88C2.24 18.5067 1.64 17.9867 1.16 17.32C0.706667 16.6533 0.48 15.7733 0.48 14.68C0.48 13.7733 0.706667 12.88 1.16 12C1.61333 11.0933 2.33333 10.36 3.32 9.79998C4.33333 9.21332 5.68 8.91998 7.36 8.91998C8.37333 8.91998 9.33333 9.02665 10.24 9.23998C11.1467 9.45332 11.8933 9.74665 12.48 10.12C13.0667 10.4666 13.36 10.8533 13.36 11.28C13.36 11.4666 13.2933 11.7333 13.16 12.08C13.0267 12.4 12.84 12.6933 12.6 12.96C12.3867 13.2 12.1067 13.32 11.76 13.32C11.4933 13.32 11.16 13.2267 10.76 13.04C10.36 12.8266 9.89333 12.6266 9.36 12.44C8.82667 12.2533 8.17333 12.16 7.4 12.16C6.62667 12.16 6 12.2933 5.52 12.56C5.06667 12.8 4.73333 13.0933 4.52 13.44C4.30667 13.7867 4.2 14.1333 4.2 14.48C4.2 15.0666 4.42667 15.52 4.88 15.84C5.33333 16.16 5.93333 16.4267 6.68 16.64C7.42667 16.8533 8.21333 17.08 9.04 17.32C9.86667 17.5333 10.64 17.8533 11.36 18.28C12.1067 18.7066 12.7067 19.28 13.16 20C13.64 20.72 13.88 21.68 13.88 22.88C13.88 24.56 13.2667 25.9066 12.04 26.92C10.84 27.9333 9.12 28.44 6.88 28.44Z" fill="#00164D"/>
<path d="M55.16 28.12C54.5467 28.12 54.04 27.9733 53.64 27.68C53.2667 27.3867 53.08 27.0667 53.08 26.72V10.52C53.08 10.12 53.2667 9.8 53.64 9.56C54.04 9.29333 54.5467 9.16 55.16 9.16C55.6667 9.16 56.1067 9.29333 56.48 9.56C56.8534 9.8 57.04 10.12 57.04 10.52V11.96C57.4934 11.1867 58.16 10.4933 59.04 9.88C59.92 9.24 61.0267 8.92 62.36 8.92C63.56 8.92 64.6134 9.29333 65.52 10.04C66.4534 10.7867 67.1467 11.7467 67.6 12.92C68.2934 11.56 69.1867 10.56 70.28 9.92C71.3734 9.25333 72.4934 8.92 73.64 8.92C74.84 8.92 75.96 9.22667 77 9.84C78.0667 10.4533 78.9334 11.3467 79.6 12.52C80.2667 13.6933 80.6 15.12 80.6 16.8V26.72C80.6 27.0667 80.3867 27.3867 79.96 27.68C79.56 27.9733 79.0667 28.12 78.48 28.12C77.92 28.12 77.4267 27.9733 77 27.68C76.6 27.3867 76.4 27.0667 76.4 26.72V16.8C76.4 15.8933 76.2134 15.1333 75.84 14.52C75.4934 13.88 75.0267 13.4 74.44 13.08C73.88 12.76 73.2934 12.6 72.68 12.6C72.04 12.6 71.44 12.7733 70.88 13.12C70.32 13.44 69.8534 13.9067 69.48 14.52C69.1067 15.1067 68.92 15.84 68.92 16.72V26.76C68.92 27.24 68.6934 27.5867 68.24 27.8C67.8134 28.0133 67.3334 28.12 66.8 28.12C66.32 28.12 65.8534 28.0133 65.4 27.8C64.9467 27.5867 64.72 27.24 64.72 26.76V16.76C64.72 15.9067 64.5467 15.1733 64.2 14.56C63.8534 13.9467 63.4 13.48 62.84 13.16C62.28 12.8133 61.6667 12.64 61 12.64C60.3867 12.64 59.7867 12.8 59.2 13.12C58.64 13.44 58.1734 13.9067 57.8 14.52C57.4534 15.1333 57.28 15.8933 57.28 16.8V26.72C57.28 27.0667 57.0667 27.3867 56.64 27.68C56.24 27.9733 55.7467 28.12 55.16 28.12Z" fill="#00164D"/>
<path d="M86.9178 28.12C86.3045 28.12 85.7978 27.9733 85.3978 27.68C85.0245 27.3867 84.8378 27.0667 84.8378 26.72V10.52C84.8378 10.12 85.0245 9.8 85.3978 9.56C85.7978 9.29333 86.3045 9.16 86.9178 9.16C87.4245 9.16 87.8645 9.29333 88.2378 9.56C88.6112 9.8 88.7978 10.12 88.7978 10.52V11.96C89.1978 11.1867 89.8512 10.4933 90.7578 9.88C91.6912 9.24 92.8245 8.92 94.1578 8.92C95.4112 8.92 96.5578 9.28 97.5978 10C98.6645 10.6933 99.5178 11.64 100.158 12.84C100.798 14.0133 101.118 15.3333 101.118 16.8V26.72C101.118 27.1733 100.891 27.52 100.438 27.76C100.011 28 99.5312 28.12 98.9978 28.12C98.5178 28.12 98.0512 28 97.5978 27.76C97.1445 27.52 96.9178 27.1733 96.9178 26.72V16.8C96.9178 16.1067 96.7312 15.44 96.3578 14.8C96.0112 14.16 95.5312 13.64 94.9178 13.24C94.3045 12.84 93.6245 12.64 92.8778 12.64C92.2378 12.64 91.6245 12.8133 91.0378 13.16C90.4512 13.48 89.9712 13.9467 89.5978 14.56C89.2245 15.1733 89.0378 15.92 89.0378 16.8V26.72C89.0378 27.0667 88.8245 27.3867 88.3978 27.68C87.9978 27.9733 87.5045 28.12 86.9178 28.12Z" fill="#00164D"/>
<path d="M107.387 4.4C106.72 4.4 106.147 4.17333 105.667 3.72C105.187 3.26667 104.947 2.76 104.947 2.2C104.947 1.58667 105.187 1.06667 105.667 0.639999C106.147 0.213333 106.72 0 107.387 0C108.053 0 108.613 0.213333 109.067 0.639999C109.547 1.06667 109.787 1.58667 109.787 2.2C109.787 2.76 109.547 3.26667 109.067 3.72C108.613 4.17333 108.053 4.4 107.387 4.4ZM107.387 28.12C106.773 28.12 106.267 27.9733 105.867 27.68C105.493 27.3867 105.307 27.0667 105.307 26.72V10.52C105.307 10.12 105.493 9.8 105.867 9.56C106.267 9.29333 106.773 9.16 107.387 9.16C107.973 9.16 108.467 9.29333 108.867 9.56C109.293 9.8 109.507 10.12 109.507 10.52V26.72C109.507 27.0667 109.293 27.3867 108.867 27.68C108.467 27.9733 107.973 28.12 107.387 28.12Z" fill="#00164D"/>
<path d="M117.981 28.44C116.515 28.44 115.261 28.0133 114.221 27.16C113.181 26.28 112.661 24.9467 112.661 23.16C112.661 21.64 113.061 20.4667 113.861 19.64C114.661 18.8133 115.755 18.24 117.141 17.92C118.555 17.6 120.181 17.44 122.021 17.44H123.781V16.72C123.781 16.0267 123.648 15.36 123.381 14.72C123.141 14.0533 122.728 13.5067 122.141 13.08C121.581 12.6267 120.808 12.4 119.821 12.4C118.835 12.4 118.075 12.4933 117.541 12.68C117.008 12.8667 116.581 13.0667 116.261 13.28C115.941 13.4933 115.648 13.6 115.381 13.6C114.901 13.6 114.528 13.3733 114.261 12.92C113.995 12.44 113.861 11.96 113.861 11.48C113.861 11 114.168 10.5733 114.781 10.2C115.421 9.8 116.208 9.49333 117.141 9.28C118.075 9.04 118.995 8.92 119.901 8.92C121.875 8.92 123.448 9.29333 124.621 10.04C125.795 10.76 126.648 11.7067 127.181 12.88C127.715 14.0533 127.981 15.32 127.981 16.68V26.72C127.981 27.0933 127.781 27.4267 127.381 27.72C127.008 27.9867 126.528 28.12 125.941 28.12C125.408 28.12 124.955 27.9867 124.581 27.72C124.208 27.4267 124.021 27.0933 124.021 26.72V25.32C123.328 26.12 122.488 26.84 121.501 27.48C120.515 28.12 119.341 28.44 117.981 28.44ZM119.501 25.24C120.168 25.24 120.821 25.04 121.461 24.64C122.128 24.24 122.675 23.7333 123.101 23.12C123.555 22.5067 123.781 21.88 123.781 21.24V19.76H122.781C121.768 19.76 120.808 19.8267 119.901 19.96C118.995 20.0667 118.261 20.3333 117.701 20.76C117.168 21.16 116.901 21.7867 116.901 22.64C116.901 23.5467 117.141 24.2133 117.621 24.64C118.128 25.04 118.755 25.24 119.501 25.24Z" fill="#00164D"/>
</svg>
